# xmcd
#
# Track frame offsets: 
#        150
#        6662
#        34032
#        48165
#        69572
#        93065
#        116987
#        139017
#        157060
#        177817
#        198842
#        218992
#        234317
#        248532
#        275197
#        289117
#
# Disc length: 4086 seconds
#
# Revision: 0
# Processed by: cddbd v1.4PL0 Copyright (c) Steve Scherf et al.
# Submitted via: ExactAudioCopy v0.90b4
#
DISCID=e60ff410
DTITLE=B.B. King - Indianola Mississippi Seeds [1970] and Friends [1974]
DYEAR=1900
DGENRE=Blues
TTITLE0=Nobody Loves Me But My Mother
TTITLE1=You're Still My Woman
TTITLE2=Ask Me No Questions
TTITLE3=Until I'm Dead And Cold
TTITLE4=King's Special
TTITLE5=Ain't Gonna Worry My Life Anymore
TTITLE6=Chains And Things
TTITLE7=Go Underground
TTITLE8=Hummingbird
TTITLE9=Friends
TTITLE10=I Got Them Blues
TTITLE11=Baby I'm Yours
TTITLE12=Up At 5am
TTITLE13=Philadelphia
TTITLE14=When Everything Else Is Gone
TTITLE15=My Song
EXTD=title 1 =01-09\ntitle 2 =10-16
EXTT0=
EXTT1=
EXTT2=
EXTT3=
EXTT4=
EXTT5=
EXTT6=
EXTT7=
EXTT8=
EXTT9=
EXTT10=
EXTT11=
EXTT12=
EXTT13=
EXTT14=
EXTT15=
PLAYORDER=
